<?xml version="1.0" encoding="utf-8"?>
<!-- Generator: Adobe Illustrator 17.1.0, SVG Export Plug-In . SVG Version: 6.00 Build 0)  -->
<!DOCTYPE svg PUBLIC "-//W3C//DTD SVG 1.1//EN" "http://www.w3.org/Graphics/SVG/1.1/DTD/svg11.dtd">
<svg version="1.1" id="Layer_1" xmlns="http://www.w3.org/2000/svg" xmlns:xlink="http://www.w3.org/1999/xlink" x="0px" y="0px"
	 viewBox="0 0 297.4 150.4" enable-background="new 0 0 297.4 150.4" xml:space="preserve">
<path fill-rule="evenodd" clip-rule="evenodd" fill="#010202" d="M297.4,85.4c0.6,11-7.2,27.9-13.7,32.9c-2,1.6-4.2,2.4-6.8,1.6
	c-2.2-1.3-2.7-3-3.1-5.2c-0.6-9-6.5-8.9-8.6-0.5c-0.8,3.2-1.6,6.4-2.4,9.7c-2.2,8.9-4.3,17.7-6.7,26.5c-9.3-2.2-19.5-4.4-28-6.9
	c-6.1-1.9-11.3-5.2-6.8-11.8c1.7-2.6,4.9-4.7,7.3-6.7c3.6-3.1,5.5-5.9,5.6-10.9c0.2-5.8-4.1-9.3-9.1-11.4c-5.3-2.2-12.1-3.2-17.7-3
	c-5.1,0.1-9.8,1.7-12.2,6.5c-4.9,9.3,7.1,14.4,2.6,22.5c-3.8,5.1-12.1,3.6-20,1.4c-5.7-1.7-11.3-3.6-14.8-4.9l8-25.5
	c1.7-5.5,3-11.3-1-14.2H297.4z"/>
<path fill-rule="evenodd" clip-rule="evenodd" fill="#010202" d="M282.6,71.1c-0.6,2-0.9,4-0.7,5.5H137.3c-0.6-2.4-0.7-5-0.7-7.7
	c0.1-8.5,2.7-18,7.7-25c4-5.7,9.4-10.7,16.8-6.3c5,2.5,5.2,8.2,6.8,13.3c0.9,2.6,1.9,5.3,4.6,6.7c5.9,3,10.7,0.6,13.1-5.7L198.1,17
	c2.5,1,7.9,3.8,12.9,5.9c4.9,2,9.4,3.6,11.7,1.4c1.7-2.2,1.4-4.4,1-5.6c-0.6-1.5-1-3.1-1.1-4.6c-0.7-4.8,1-9.2,5.3-11.7
	c8.2-4.6,19.5-1.8,28,0.2c4,1.3,8.5,3.5,10.8,6.1c2.5,3.3,2.7,7.5,0.9,11.1c-1.9,4-5.1,6-8.8,7.7c-3,1.4-7.7,2.5-6.1,7.1
	c0.9,2.7,4.2,4.9,8.6,6.6L288.4,52C286.6,58.3,284.5,64.7,282.6,71.1z"/>
<path fill="#010202" d="M137.6,85.3h-15v2.4c4.9,0,5.7,1.9,5.7,6.7v23.4c0,4.5-0.7,5.9-5.8,6.5v2.6h18.3v-2.6
	c-5.1-0.6-5.8-2.1-5.8-6.5V90.4c0-1.9-0.1-2.6,2.8-2.7c1.1,0,2.1-0.1,3.2,0c5.7,0.6,8.9,4.5,8.9,9.7c0,5.7-3.9,9.4-9.3,9.4
	c-0.4,0-0.8-0.1-1.2-0.1c-1.1,0-1.5,0.2-1.5,1.4c0,1.7,1,1.9,4.2,1.9c9.6,0,14.2-5.6,14.2-12.7c0-6.2-2.8-9.9-9.3-11.3
	C143.9,85.4,140.8,85.3,137.6,85.3L137.6,85.3z M117.1,127L117.1,127l2.4-10.1l-2.5-0.7c-2.7,5.7-6.7,8.3-12.4,8.3
	c-5.7,0-6.4-1.4-6.4-6.1v-12.1h3.5c6.3,0,8.9,1,9.1,5.7h2.5V98.1h-2.5c-0.1,4.8-2.9,5.5-9.1,5.5h-3.5V89.7c0-1.7,0.2-1.9,2-1.9h3
	c7.1,0,10.7,1.2,12.3,6.3h2.4l-0.8-8.8H85.8v2.3c5,0.6,5.7,2,5.7,6.4v23.8c0,3.2-0.4,4.7-2.3,5.9c-0.9,0.6-2.4,0.9-3.8,0.8
	c-3.2-0.1-4.6-1.8-6.4-4l-8.5-9.9c-1.2-1.5-2.7-2.9-4.3-4.2c6.8-1.5,10.2-5.1,10.2-10.7c0-3.8-1.7-6.7-5.2-8.3
	c-3.6-1.8-8.1-2.1-12.1-2.1H44.6v2.5c5.4,0.6,5.5,2,5.5,7.1v22.8c0,4.4-1,6.2-5.5,6.7v2.6h17.2v-2.6c-4.4-0.5-5.1-2.1-5.1-6.8v-10.5
	c0.1,0,0.4,0,0.6,0c1.8,0,3.1,1,4.7,2.8c0.8,0.9,1.5,1.8,2.3,2.7L76.1,127L117.1,127L117.1,127z M59.8,104.4L59.8,104.4
	c-0.7,0-1.8,0-3.2-0.1V90.1c0-1.8,0.4-2.3,3.2-2.3c2,0,3.9,0.3,5.6,1.3c2.5,1.4,4.1,3.8,4.1,6.8c0,3.5-1.6,6.2-4.6,7.5
	C63.3,104.1,61.5,104.4,59.8,104.4L59.8,104.4z M24.8,106.1L24.8,106.1v2.1c4.6,0.4,5.1,2,5.1,6.4v8.6c-2.6,1.2-5.4,1.7-8.6,1.7
	c-8.8,0-13.9-7.3-13.9-20.1c0-11.4,5-17.7,13.5-17.7c6.9,0,11.2,3.1,13.2,9.6l2.4-0.1l-0.8-8.8c-4.3-2.1-8.5-3.2-12.9-3.2
	c-6.9,0-12.4,2.3-16.7,6.8C2.1,95.5,0,100.7,0,106.8c0,8,3.9,14.5,11,18.5c3.5,1.9,7.3,2.9,11.6,2.9c3.6,0,8.2-0.6,13.8-2v-9.6
	c0-5.4,0.4-7.5,4.6-8.2v-2.1H24.8z"/>
</svg>
